<?xml version="1.0" standalone="no"?><!DOCTYPE svg PUBLIC "-//W3C//DTD SVG 1.1//EN" "http://www.w3.org/Graphics/SVG/1.1/DTD/svg11.dtd"><svg t="1733579631386" class="icon" viewBox="0 0 1024 1024" version="1.1" xmlns="http://www.w3.org/2000/svg" p-id="1497" xmlns:xlink="http://www.w3.org/1999/xlink" width="200" height="200"><path d="M230.128 206.934c0-13.981 4.398-21.35 9.518-26.158 6.042-5.673 16.586-10.875 32.741-13.267 32.911-4.874 76.659 3.894 110.024 22.39 33.521 18.582 57.263 44.05 72.745 65.318 7.694 10.568 13.177 19.868 16.662 26.354a153.69 153.69 0 0 1 3.706 7.32c0.371 0.79 0.619 1.345 0.75 1.641l0.095 0.218 9.371 22.625 24.645 0.442 0.28 0.005 0.933 0.02a935.352 935.352 0 0 1 15.177 0.452c9.578 0.364 19.317 0.907 24.644 1.57 16.546 2.06 30.365 5.008 39.925 7.404a244.154 244.154 0 0 1 10.816 2.959c1.188 0.357 2.051 0.63 2.563 0.796l0.476 0.155 0.026 0.009 0.019 0.006 0.028 0.01 49.751 17.128v-105.24c0.485-0.68 1.645-1.95 4.18-3.703 6.19-4.281 17.297-8.648 32.509-9.993 30.054-2.656 68.138 7.17 97.614 38.42 27.733 29.403 34.126 70.354 31.312 109.36-1.369 18.986-4.843 35.963-8.006 48.219-1.57 6.085-3.035 10.895-4.067 14.076a145.76 145.76 0 0 1-1.172 3.476l-0.155 0.437-0.103 0.282-0.004 0.014-0.008 0.02-0.011 0.03-0.01 0.025-6.432 16.967 9.389 15.603 0.02 0.034 0.299 0.508c0.27 0.461 0.702 1.206 1.276 2.218a350.192 350.192 0 0 1 4.986 9.128c4.25 8.04 10.084 19.708 16.241 33.903 12.459 28.727 25.555 66.249 30.296 104.257 10.82 86.728 4.717 121.798-8.377 140.655l-0.145 0.209-0.141 0.21c-7.072 10.483-22.336 19.407-41.735 25.574-8.914 2.833-17.22 4.616-23.298 5.68-3.008 0.526-5.39 0.862-6.929 1.059l-0.492 0.061H257.485c-0.489-0.063-1.106-0.146-1.838-0.254a149.987 149.987 0 0 1-11.093-2.098c-9.602-2.176-22.262-5.936-35.005-12.176-25.249-12.365-47.72-32.503-52.801-68.434l-0.08-0.561-0.096-0.557c-10.502-60.963 5.1-124.148 25.206-174.262 9.903-24.684 20.533-45.291 28.653-59.662 4.048-7.167 7.443-12.731 9.769-16.419a230.91 230.91 0 0 1 2.624-4.077c0.284-0.431 0.489-0.736 0.605-0.909l0.082-0.121 0.031-0.045 6.586-9.576V206.934z m330.583 34.326c-7.514-0.935-17.713-1.523-26.329-1.899-4.603-8.03-10.695-17.766-18.424-28.383-19.915-27.356-51.376-61.492-97.08-86.828-45.859-25.422-106.169-38.613-157.51-31.01-25.971 3.847-52.602 13.492-73.203 32.836-21.523 20.209-33.236 48.025-33.236 80.958v217.023a487.523 487.523 0 0 0-9.976 16.886c-9.379 16.602-21.573 40.24-32.97 68.648-22.444 55.942-43.303 134.093-29.612 214.464 9.903 68.461 55.222 105.813 94.097 124.851 19.372 9.487 37.903 14.909 51.462 17.981a224.736 224.736 0 0 0 16.739 3.153c2.084 0.308 3.785 0.523 5.045 0.668 0.63 0.073 1.151 0.128 1.556 0.169l0.519 0.051 0.192 0.017 0.079 0.007 0.036 0.004s0.366-0.688 1.739-3.39l-1.707 3.392 1.627 0.142h532.043l1.673-0.15-1.673-32.678 1.694 32.676 0.022-0.002 0.05-0.004 0.121-0.011 0.321-0.031 0.958-0.099c0.774-0.083 1.817-0.203 3.1-0.367 2.562-0.326 6.104-0.832 10.383-1.58 8.496-1.487 20.217-3.988 33.119-8.089 24.178-7.686 59.592-23.182 81.147-54.966 31.147-45.04 31.668-107.81 21.086-192.631-5.967-47.83-21.967-92.677-35.925-124.861-7.053-16.26-13.758-29.683-18.746-39.119l-0.071-0.135c0.764-2.664 1.57-5.598 2.39-8.778 3.972-15.391 8.42-36.966 10.196-61.592 3.479-48.221-2.936-114.746-51.606-166.346-46.928-49.752-108.473-66.191-158.947-61.729-25.053 2.214-49.435 9.751-68.667 23.051-19.234 13.301-36.6 35.157-36.6 64.467v6.062a420.441 420.441 0 0 0-19.112-2.828zM452.957 633.656c-11.933-16.989-7.831-40.434 9.164-52.364 16.994-11.931 40.445-7.829 52.378 9.16 14.132 20.119 40.274 34.903 71.702 34.903 28.946 0 53.498-12.563 68.224-30.348a72.364 72.364 0 0 0 2.609-3.343c12.286-16.737 35.818-20.347 52.558-8.064 16.741 12.283 20.352 35.809 8.066 52.545a147.852 147.852 0 0 1-5.307 6.803c-29.471 35.592-75.531 57.587-126.15 57.587-54.822 0-104.409-25.827-133.244-66.879z" p-id="1498"></path></svg>